# xmcd
#
# Track frame offsets: 
#        150
#        33375
#        50666
#        74336
#        93959
#        113528
#        136975
#        156024
#        174430
#        179283
#        198291
#        211210
#        227792
#        246215
#        261126
#        280666
#        298312
#        316490
#
# Disc length: 4452 seconds
#
# Revision: 1
# Processed by: cddbd v1.5.2PL0 Copyright (c) Steve Scherf et al.
# Submitted via: ExactAudioCopy v0.99pb5
#
DISCID=04116212
DTITLE=The Main Ingredient - Shame On The World and I Only Have Eyes For
DTITLE=You
DYEAR=2008
DGENRE=Soul
TTITLE0=Evening Of Love
TTITLE1=I Only Have Eyes For You
TTITLE2=Party People
TTITLE3=Rediscover Me
TTITLE4=Save Me
TTITLE5=Just Once
TTITLE6=Only
TTITLE7=All Because Of You
TTITLE8=Rediscover Me (Reprise)
TTITLE9=Shame On The World
TTITLE10=Put Your Love In My Hands
TTITLE11=Let Me Prove My Love To You
TTITLE12=Old Greyhound
TTITLE13=Jamaica (Let Me Go Home)
TTITLE14=Over You
TTITLE15=Lillian
TTITLE16=If I'm Gonna Be Sad
TTITLE17=Spoiled
EXTD=
EXTT0=
EXTT1=
EXTT2=
EXTT3=
EXTT4=
EXTT5=
EXTT6=
EXTT7=
EXTT8=
EXTT9=
EXTT10=
EXTT11=
EXTT12=
EXTT13=
EXTT14=
EXTT15=
EXTT16=
EXTT17=
PLAYORDER=
